<svg width="30" height="30" fill="none" xmlns="http://www.w3.org/2000/svg"><path clip-rule="evenodd" d="M4.588 1h20.824a3.61 3.61 0 0 1 2.534 1.056A3.594 3.594 0 0 1 29 4.587v20.817c0 .951-.378 1.863-1.05 2.537A3.61 3.61 0 0 1 25.411 29H4.588a3.61 3.61 0 0 1-2.537-1.06A3.594 3.594 0 0 1 1 25.405V4.587c.003-.95.382-1.86 1.054-2.531A3.61 3.61 0 0 1 4.588 1Z" stroke="#fff" stroke-miterlimit="10"/><path d="M24.86 10.842c-.239-.195-1.15-.189-2.054-.184-.903.004-1.841 0-2.053.093-.211.094-.639 1.128-1.211 2.211-.65 1.228-1.454 2.405-1.96 2.39-.662 0-.505-2.027-.468-3.504.027-.98-.134-1.286-.28-1.384-.35-.232-1.306-.45-1.306-.45s-2.864-.216-3.262 1.015c.542.07 1.48-.1 1.119 3.693-.02.182-.44 1.738-1.762-.37-.333-.53-1.622-3.686-2.064-3.686-1.48-.039-2.932-.1-3.45.185-.474.26.639 2.442 2.518 5.348 1.542 2.376 3.163 4.233 5.972 4.7.522.053 1.903.116 2.33-.09.298-.146-.064-2.206.932-2.39.44-.087 2.152 2.142 2.8 2.39.392.153 1.258.216 2.145.182.958-.029 2.04.082 2.146-.554.233-1.42-2.893-3.258-2.987-4.149-.066-.628 1.145-1.79 1.773-2.672.769-1.082 1.6-2.374 1.121-2.774Z" fill="#fff"/></svg>