<svg width="30" height="30" fill="none" xmlns="http://www.w3.org/2000/svg"><path clip-rule="evenodd" d="M4.588 1h20.824A3.601 3.601 0 0 1 29 4.588v20.824A3.601 3.601 0 0 1 25.412 29H4.588A3.601 3.601 0 0 1 1 25.412V4.588A3.601 3.601 0 0 1 4.588 1Z" stroke="#fff" stroke-miterlimit="10"/><path d="M24.806 11.02s-.185-1.373-.755-1.975c-.723-.793-1.542-.797-1.902-.844C19.49 8 15.501 8 15.501 8s-3.99 0-6.646.201c-.372.047-1.18.051-1.906.844-.568.604-.753 1.976-.753 1.976A31.203 31.203 0 0 0 6 14.241v1.51c.008 1.077.072 2.153.192 3.223 0 0 .185 1.373.753 1.977.725.792 1.674.766 2.097.85 1.52.152 6.46.199 6.46.199s3.99 0 6.652-.206c.37-.049 1.178-.05 1.901-.845.57-.602.756-1.975.756-1.975.117-1.07.18-2.146.189-3.223v-1.51a31.607 31.607 0 0 0-.194-3.222Zm-6.14 3.777-5.13 2.787v-5.593l2.315 1.266 2.816 1.54Z" fill="#fff"/></svg>