<?xml version="1.0" encoding="utf-8"?><!--Generator: Adobe Illustrator 26.0.1, SVG Export Plug-In . SVG Version: 6.00 Build 0)--><svg version="1.1" id="Слой_1" xmlns="http://www.w3.org/2000/svg" xmlns:xlink="http://www.w3.org/1999/xlink" x="0px" y="0px" viewBox="0 0 1155 1155" style="enable-background:new 0 0 1155 1155" xml:space="preserve"><style type="text/css">.st0{fill:#0F0F0F;}
	.st1{fill:#151515;}
	.st2{fill:#181818;}</style><path class="st0" d="M577.5,1076.6L1.2,78.4h1152.7L577.5,1076.6z"/><path class="st1" d="M296,432.4c4.3,0,6.5,2.2,6.5,6.7l5.2,117.5h-15.8l-4.5-111.1h-3.8l-27.7,91.6c-1,3.6-3.2,5.4-6.8,5.4h-14.2
	c-3.7,0-6.1-1.8-7.2-5.4l-27.7-91.6h-3.6L192,556.6h-15.8l4.9-117.5c0.2-4.4,2.5-6.7,6.7-6.7h18c3.4,0,5.6,1.8,6.7,5.4l23.2,75.8
	c1,2.8,1.7,5.5,2.3,8.3c0.7,2.8,1.5,5.6,2.3,8.5h3.2c0.8-2.9,1.6-5.7,2.3-8.5s1.5-5.6,2.3-8.6l23.2-75.4c1-3.6,3.2-5.4,6.8-5.4H296z
	"/><path class="st1" d="M412.8,469l-34.9,92.5c-1,2.5-2.2,5.3-3.8,8.5c-1.4,3.1-3.2,6.2-5.4,9.2c-2,3.1-4.5,5.8-7.4,7.9
	c-4.4,3.4-9.4,5.3-14.9,5.9c-5.4,0.7-11.3,0.7-17.6-0.2l1.4-10.6c3.8,0.1,7.6-0.1,11.2-0.5c3.7-0.4,7-1.5,9.9-3.4
	c2.5-1.8,4.8-4.3,6.8-7.6c2.2-3.1,4-6.5,5.4-10.3l4.3-10.4c1-2.4,1.9-5,2.9-7.9s1.9-5.5,2.7-7.7l23-65.3H412.8z M340.8,469
	l23.2,65.3c0.6,1.8,1.1,3.6,1.6,5.4c0.6,1.7,1.1,3.4,1.6,5.2h4.1l-5.2,11.7h-4.5c-1.3,0-2.5-0.4-3.4-1.1c-1-0.7-1.7-1.7-2.2-2.9
	L324.5,469H340.8z"/><path class="st1" d="M481.1,466.8c10.8,0,18.5,4,23.2,11.9c4.7,7.8,7,19.3,7,34.6c0,11.3-1.2,20.3-3.6,27c-2.4,6.6-6.1,11.3-11,14.2
	c-4.9,2.9-11.1,4.3-18.5,4.3c-5.8,0-11.5-0.8-17.1-2.3s-11-4-16.2-7.2l0.9-9.2c5.6,1.6,10.6,2.9,14.8,4c4.3,1,8.9,1.4,13.7,1.4
	c5.2,0,9.2-0.9,12.2-2.7c3.1-1.8,5.4-5,6.8-9.7c1.4-4.7,2.2-11.3,2.2-19.8c0-8.3-0.7-14.8-2-19.6c-1.2-4.8-3.2-8.2-6.1-10.3
	c-2.8-2.2-6.5-3.2-11.2-3.2c-4.8,0-9.5,1.1-14.2,3.4c-4.7,2.3-10.1,5.8-16.4,10.4l-1.6-10.3c3.2-3.5,6.9-6.5,11-9
	c4.1-2.5,8.3-4.4,12.8-5.8C472.3,467.5,476.8,466.8,481.1,466.8z M443.5,469l1.8,18.2l0.9,2.3v56.2l-0.7,2.2
	c0.4,3.4,0.6,6.6,0.7,9.7s0.1,6.4,0,9.9v25.4h-15.1V469H443.5z"/><path class="st1" d="M577.4,466.8c6.5,0,11.9,0.9,16.4,2.7c4.4,1.7,7.8,4.6,10.1,8.6c2.3,4.1,3.4,9.7,3.4,16.7v61.7h-12.1l-2.3-19.1
	l-0.9-2v-40.7c-0.1-5.4-1.4-9.2-3.8-11.5c-2.4-2.4-7.1-3.6-14-3.6c-4.7,0-10.5,0.2-17.5,0.7c-6.8,0.5-13.6,1-20.3,1.6l-1.4-11.3
	c4.1-0.7,8.6-1.4,13.5-2c4.9-0.6,9.9-1.1,14.9-1.4C568.4,467,573.1,466.8,577.4,466.8z M600.1,502.6l-0.2,11.5l-41.8,0.2
	c-4.2,0.1-7.2,1.3-9,3.4c-1.7,2-2.5,4.9-2.5,8.6v5.6c0,4.6,1.1,7.9,3.2,10.1c2.3,2,5.8,3.1,10.4,3.1c3.4,0,7.1-0.6,11.3-1.8
	c4.3-1.3,8.6-3.3,13-5.9c4.3-2.6,8.3-6,11.9-10.1v11.3c-1.2,1.7-3.1,3.7-5.6,5.9c-2.4,2.2-5.3,4.3-8.8,6.5c-3.4,2-7.1,3.8-11.3,5.2
	c-4.2,1.3-8.7,2-13.5,2c-5.2,0-9.7-0.9-13.7-2.7c-4-1.9-7-4.7-9.2-8.3c-2.2-3.7-3.2-8.2-3.2-13.5v-9.5c0-6.8,2.1-12.1,6.3-15.8
	c4.3-3.8,10.3-5.8,18-5.8H600.1z"/><path class="st1" d="M670.8,468.1c9.1,0,16.3,0.7,21.6,2c5.4,1.3,9.3,3.7,11.7,7c2.4,3.4,3.6,8.2,3.6,14.4s-1.5,11-4.5,14.2
	c-2.9,3.1-7.7,5-14.4,5.6v0.5c8.2,0.6,13.9,2.9,17.1,6.8c3.2,3.8,4.9,9.3,4.9,16.4c0,6-1.2,10.7-3.6,14c-2.3,3.2-6,5.5-11.2,6.8
	c-5,1.3-11.8,2-20.3,2c-6.1,0-11.5-0.1-16-0.2c-4.6,0-8.8-0.1-12.6-0.4c-3.7-0.1-7.7-0.3-11.9-0.5l2.2-11.3
	c2.4,0.1,6.8,0.2,13.3,0.4c6.5,0,14.1,0,22.9,0c5.4,0,9.7-0.4,13-1.1c3.2-0.8,5.5-2.3,6.8-4.3c1.4-2,2.2-4.9,2.2-8.6
	c0-5.6-1.7-9.5-5-11.5c-3.4-2.2-9.3-3.2-17.8-3.2h-35.5v-11h35.5c5,0,9.1-0.4,12.1-1.1c3-0.7,5.2-2,6.5-4c1.3-2,2-4.8,2-8.3
	c0-3.4-0.7-5.9-2.2-7.7c-1.4-1.8-3.8-3.1-7.2-3.8c-3.4-0.7-7.9-1.1-13.5-1.1c-5.2-0.1-9.8-0.2-14-0.2c-4.1,0-7.7,0.1-10.8,0.2
	c-3.1,0-5.8,0.1-8.1,0.4l-2.2-11.3c3.7-0.4,7.3-0.6,10.6-0.7s7-0.2,11-0.2C660.7,468.1,665.4,468.1,670.8,468.1z M649.5,469.1v87.7
	h-14.4v-87.7H649.5z"/><path class="st1" d="M770.6,466.8c13.2,0,22.7,2.4,28.6,7.2c6,4.8,9.1,11.9,9.2,21.4c0,7.8-1.7,13.9-5,18.4
	c-3.2,4.3-8.5,6.5-15.8,6.5h-51.3v-11.9h47.3c3.8,0,6.4-1.3,7.6-4c1.3-2.8,1.9-5.8,1.8-9c0-5.6-1.6-9.7-4.9-12.1
	c-3.2-2.4-8.8-3.6-16.7-3.6c-6.4,0-11.4,1-15.1,2.9c-3.6,1.8-6.2,5-7.7,9.7c-1.4,4.6-2.2,11-2.2,19.3c0,9.4,0.9,16.5,2.7,21.4
	c1.9,4.9,4.9,8.3,9,10.1c4.1,1.8,9.5,2.7,16.2,2.7c4.8,0,10-0.2,15.5-0.5c5.6-0.5,10.7-1,15.1-1.6l1.4,10.3c-2.6,1.1-6,2-10.1,2.7
	c-4.1,0.7-8.3,1.3-12.6,1.6c-4.2,0.4-8,0.5-11.3,0.5c-10,0-18.1-1.5-24.3-4.5c-6.1-3.1-10.6-8-13.3-14.8c-2.8-6.8-4.1-15.8-4.1-27
	c0-11.5,1.4-20.6,4.1-27.2c2.9-6.7,7.3-11.5,13.1-14.2C753.6,468.2,761.3,466.8,770.6,466.8z"/><path class="st1" d="M908.9,469v87.7H895v-58.1c0-1.9,0.1-3.8,0.2-5.6c0.1-1.9,0.2-4,0.4-6.1h-0.4c-0.7,1.7-1.7,3.5-2.9,5.4
	c-1.1,1.8-2.2,3.4-3.2,4.9l-44.6,59.6h-12.6V469h13.9v58.1c0,1.9-0.1,3.8-0.2,5.8c0,1.8-0.1,3.8-0.4,5.9h0.4c1-1.8,2-3.6,3.1-5.4
	c1.1-1.8,2.2-3.4,3.2-4.7l44.6-59.8H908.9z M885.1,430.1h11.7c0.4,4.7-0.5,8.9-2.7,12.6c-2,3.7-5.2,6.7-9.4,9
	c-4.1,2.2-9,3.2-14.8,3.2s-10.7-1.1-14.9-3.2c-4.2-2.3-7.4-5.3-9.5-9c-2-3.7-2.9-7.9-2.7-12.6h11.7c0,5.2,1.3,9.2,4,12.1
	c2.8,2.8,6.6,4.1,11.5,4.1c4.8,0,8.5-1.4,11.2-4.1C883.8,439.3,885.1,435.2,885.1,430.1z"/><path class="st2" d="M346.8,597.7c5.9,0,10.6,0.7,14.2,2.1c3.6,1.3,6.2,3.5,7.8,6.5s2.4,7,2.4,11.9c0,4.9-0.8,8.9-2.4,11.9
	c-1.6,3-4.2,5.1-7.8,6.5c-3.5,1.3-8.2,2-14.2,2c-5.9,0-10.7-0.7-14.2-2c-3.6-1.3-6.2-3.5-7.8-6.5c-1.6-3-2.4-7-2.4-11.9
	c0-5,0.8-8.9,2.4-11.9c1.6-3,4.2-5.1,7.8-6.5C336.1,598.4,340.9,597.7,346.8,597.7z M346.7,603.5c-4.4,0-7.9,0.5-10.5,1.4
	c-2.6,0.9-4.5,2.3-5.6,4.5c-1.1,2.1-1.7,5.1-1.7,8.9c0,3.7,0.6,6.7,1.7,8.8c1.1,2.1,3,3.7,5.6,4.6c2.6,0.9,6.1,1.3,10.5,1.3
	c4.4,0,7.9-0.4,10.5-1.3c2.6-0.9,4.5-2.4,5.6-4.6c1.1-2.1,1.7-5.1,1.7-8.8c0-3.8-0.6-6.7-1.7-8.9c-1.1-2.1-3-3.6-5.6-4.5
	C354.6,603.9,351.1,603.5,346.7,603.5z M349.9,581.6v17.2l-0.2,1.5v34.9l0.2,1.8v16.7h-6.3V637l0.2-1.8v-34.8l-0.2-1.6v-17.2H349.9z
	"/><path class="st2" d="M416.1,598.7v39h-6.2v-25.8c0-0.9,0-1.7,0.1-2.5c0.1-0.9,0.1-1.8,0.2-2.7H410c-0.3,0.7-0.7,1.5-1.3,2.4
	c-0.5,0.8-1,1.5-1.4,2.2l-19.8,26.5h-5.6v-39h6.2v25.8c0,0.9,0,1.7-0.1,2.6c0,0.8-0.1,1.7-0.2,2.6h0.2c0.4-0.8,0.9-1.6,1.4-2.4
	c0.5-0.8,1-1.5,1.4-2.1l19.8-26.6H416.1z"/><path class="st2" d="M445.5,598.7v39h-6.8v-39H445.5z M459.6,598.7v5.6h-35v-5.6H459.6z"/><path class="st2" d="M474.7,598.7v39H468v-39H474.7z M495.9,614.3v5.2h-21.7v-5.2H495.9z M501.9,598.7v39h-6.7v-39H501.9z"/><path class="st2" d="M530.6,597.7c5.9,0,10.1,1.1,12.7,3.2c2.7,2.1,4,5.3,4.1,9.5c0,3.5-0.7,6.2-2.2,8.2c-1.4,1.9-3.8,2.9-7,2.9
	h-22.8v-5.3h21c1.7,0,2.8-0.6,3.4-1.8c0.6-1.2,0.9-2.6,0.8-4c0-2.5-0.7-4.3-2.2-5.4c-1.4-1.1-3.9-1.6-7.4-1.6
	c-2.8,0-5.1,0.4-6.7,1.3c-1.6,0.8-2.7,2.2-3.4,4.3c-0.6,2-1,4.9-1,8.6c0,4.2,0.4,7.3,1.2,9.5c0.9,2.2,2.2,3.7,4,4.5
	c1.8,0.8,4.2,1.2,7.2,1.2c2.1,0,4.4-0.1,6.9-0.2c2.5-0.2,4.7-0.5,6.7-0.7l0.6,4.6c-1.2,0.5-2.7,0.9-4.5,1.2
	c-1.8,0.3-3.7,0.6-5.6,0.7c-1.9,0.2-3.5,0.2-5,0.2c-4.4,0-8-0.7-10.8-2c-2.7-1.4-4.7-3.6-5.9-6.6c-1.2-3-1.8-7-1.8-12
	c0-5.1,0.6-9.1,1.8-12.1c1.3-3,3.2-5.1,5.8-6.3C523,598.3,526.4,597.7,530.6,597.7z"/><path class="st2" d="M574.4,597.7c1.2,0,2.5,0.1,3.9,0.2c1.5,0.1,3,0.3,4.5,0.6c1.5,0.3,2.9,0.6,4.2,1.1l-0.9,4.4
	c-1.8-0.2-3.6-0.3-5.6-0.3c-1.9-0.1-3.6-0.2-5-0.2c-3,0-5.5,0.4-7.4,1.3c-1.8,0.9-3.1,2.3-3.9,4.5c-0.8,2.1-1.2,5.1-1.2,8.9
	s0.4,6.8,1.2,9c0.8,2.1,2.1,3.6,3.9,4.5c1.9,0.9,4.3,1.3,7.4,1.3c0.8,0,1.8,0,3.1-0.1c1.3-0.1,2.7-0.1,4.2-0.2
	c1.5-0.1,2.9-0.3,4.2-0.5l0.6,4.6c-1.9,0.7-4.1,1.2-6.4,1.5c-2.3,0.3-4.6,0.5-6.9,0.5c-4.5,0-8.1-0.7-10.8-2
	c-2.7-1.3-4.7-3.5-5.9-6.5c-1.2-3-1.8-7-1.8-12s0.6-9,1.8-12c1.2-3,3.2-5.1,5.9-6.4C566.3,598.4,569.9,597.7,574.4,597.7z"/><path class="st2" d="M647.7,598.7c-0.9,2.3-1.7,4.4-2.5,6.3c-0.7,1.9-1.5,3.5-2.3,5c-0.7,1.4-1.6,2.7-2.6,3.7c-0.9,1-2,1.8-3.2,2.5
	c-1.2,0.6-2.7,1-4.3,1.1v0.2c1.8,0.2,3.3,0.5,4.6,1.1c1.3,0.6,2.4,1.4,3.4,2.5c1,1,1.9,2.3,2.7,3.8c0.9,1.5,1.7,3.4,2.6,5.5
	c0.9,2.1,1.8,4.5,2.8,7.2h-7.1c-1-2.5-1.8-4.7-2.6-6.6c-0.8-2-1.6-3.7-2.4-5c-0.7-1.4-1.6-2.5-2.5-3.4c-0.9-0.9-2-1.5-3.2-1.9
	c-1.2-0.4-2.6-0.6-4.2-0.6v-5.3c1.9,0,3.5-0.3,4.9-1c1.3-0.7,2.5-1.8,3.4-3.2c1-1.4,1.9-3.1,2.8-5c0.9-2,1.8-4.2,2.7-6.8H647.7z
	 M621.7,598.7v11.6c0,1.2-0.1,2.3-0.2,3.5c-0.2,1.2-0.4,2.3-0.7,3.4c0.3,1.1,0.6,2.2,0.7,3.4c0.2,1.1,0.2,2.2,0.2,3.2v13.8h-6.8v-39
	H621.7z M629.3,614.7v5.3h-9.6v-5.3H629.3z"/><path class="st2" d="M689,598.7v5.4h-14.2c-1.7,0-2.9,0.4-3.6,1.1c-0.7,0.7-1.2,1.9-1.4,3.8c-0.3,2.3-0.6,4.7-1,7.2
	c-0.3,2.5-0.7,4.8-1.1,7.1c-0.4,2.3-1,4.3-1.7,6.2c-0.6,1.9-1.5,3.4-2.6,4.7c-1.1,1.3-2.5,2.2-4.1,2.9c-1.5,0.6-3.4,1-5.5,1
	l-0.7-5.2c1.4-0.4,2.6-0.8,3.4-1.3c0.9-0.5,1.6-1.1,2.1-1.8c0.5-0.7,1-1.5,1.4-2.4c0.5-1.3,0.9-2.7,1.3-4.4s0.7-3.4,1-5.2
	c0.3-1.8,0.5-3.6,0.6-5.3c0.2-1.8,0.4-3.3,0.6-4.7c0.4-3,1.3-5.3,2.9-6.8c1.6-1.5,4-2.3,7.3-2.3H689z M690.1,598.7v39h-6.8v-39
	H690.1z"/><path class="st2" d="M737.3,598.7l-15.5,41.1c-0.4,1.1-1,2.4-1.7,3.8c-0.6,1.4-1.4,2.7-2.4,4.1c-0.9,1.4-2,2.6-3.3,3.5
	c-2,1.5-4.2,2.4-6.6,2.6c-2.4,0.3-5,0.3-7.8-0.1l0.6-4.7c1.7,0.1,3.4,0,5-0.2c1.7-0.2,3.1-0.7,4.4-1.5c1.1-0.8,2.1-1.9,3-3.4
	c1-1.4,1.8-2.9,2.4-4.6l1.9-4.6c0.4-1.1,0.9-2.2,1.3-3.5c0.4-1.3,0.8-2.4,1.2-3.4l10.2-29H737.3z M705.3,598.7l10.3,29
	c0.3,0.8,0.5,1.6,0.7,2.4c0.3,0.7,0.5,1.5,0.7,2.3h1.8l-2.3,5.2h-2c-0.6,0-1.1-0.2-1.5-0.5s-0.7-0.7-1-1.3L698,598.7H705.3z"/><path class="st2" d="M776.9,578.7l1.6,5.3c-1.6,1-3.1,1.8-4.5,2.3c-1.4,0.5-2.7,0.9-4.1,1.2c-1.3,0.3-2.6,0.5-4,0.8
	c-1.3,0.2-2.7,0.5-4.2,1c-2.7,0.7-4.9,1.8-6.4,3.2c-1.5,1.4-2.6,2.9-3.3,4.6c-0.7,1.7-1.2,3.5-1.4,5.4c-0.2,1.2-0.4,2.3-0.5,3.4
	c-0.1,1-0.2,1.8-0.2,2.3h0.2c0.4-1,1-1.9,1.6-2.9c0.7-1,1.6-1.9,2.6-2.7c1.1-0.8,2.5-1.4,4.2-1.9c1.7-0.5,3.8-0.7,6.4-0.7
	c3.8,0,6.9,0.6,9.1,1.9c2.3,1.3,3.9,3.3,4.9,6.1c1,2.7,1.5,6.3,1.5,10.8c0,4.1-0.5,7.7-1.4,10.6c-1,3-2.7,5.3-5.4,6.9
	c-2.6,1.6-6.2,2.4-11,2.4c-3.4,0-6.1-0.4-8.3-1.2c-2.2-0.8-3.9-1.9-5.2-3.4c-1.3-1.4-2.2-3.2-2.9-5.2c-0.6-2-1-4.3-1.2-6.7
	c-0.2-2.5-0.2-5.2-0.2-8c0-4.2,0.2-8,0.5-11.3c0.4-3.3,1-6.2,2-8.6c1-2.5,2.5-4.5,4.5-6.2c2-1.7,4.6-3,7.8-4c1.5-0.5,3-0.9,4.4-1.1
	c1.4-0.3,2.9-0.5,4.2-0.8c1.4-0.3,2.8-0.6,4.2-1.1C773.7,580.5,775.3,579.7,776.9,578.7z M763.1,605.6c-3.2,0-5.6,0.5-7.3,1.5
	c-1.6,1-2.7,2.5-3.3,4.4c-0.5,1.9-0.8,4.3-0.8,7.1c0,3.6,0.3,6.4,1,8.5c0.7,2.1,1.8,3.5,3.4,4.4c1.6,0.9,3.7,1.3,6.4,1.3
	c2.6,0,4.7-0.4,6.2-1.3c1.5-0.9,2.7-2.3,3.4-4.3c0.7-2.1,1-4.9,1-8.6c0-3.4-0.3-6-1-7.8c-0.6-1.9-1.6-3.3-3.1-4
	C767.7,606,765.7,605.6,763.1,605.6z"/></svg>