<svg version="1.1" id="Слой_1" xmlns="http://www.w3.org/2000/svg" x="0" y="0" viewBox="0 0 1155 1155" style="enable-background:new 0 0 1155 1155" xml:space="preserve"><style>.st1{fill:#151515}.st2{fill:#181818}</style><path d="M577.5 1076.6 1.2 78.4h1152.7l-576.4 998.2z" style="fill:#0f0f0f"/><path class="st1" d="M296 432.4c4.3 0 6.5 2.2 6.5 6.7l5.2 117.5h-15.8l-4.5-111.1h-3.8l-27.7 91.6c-1 3.6-3.2 5.4-6.8 5.4h-14.2c-3.7 0-6.1-1.8-7.2-5.4L200 445.5h-3.6L192 556.6h-15.8l4s.9-117.5c.2-4.4 2.5-6.7 6.7-6.7h18c3.4 0 5.6 1.8 6.7 5.4l23.2 75.8c1 2.8 1.7 5.5 2.3 8.3.7 2.8 1.5 5.6 2.3 8.5h3.2c.8-2.9 1.6-5.7 2.3-8.5s1.5-5.6 2.3-8.6l23.2-75.4c1-3.6 3.2-5.4 6.8-5.4H296z"/><path class="st1" d="m412.8 469-34.9 92.5c-1 2.5-2.2 5.3-3.8 8.5-1.4 3.1-3.2 6.2-5.4 9.2-2 3.1-4.5 5.8-7.4 7.9-4.4 3.4-9.4 5.3-14.9 5.9-5.4.7-11.3.7-17.6-.2l1.4-10.6c3.8.1 7.6-.1 11.2-.5 3.7-.4 7-1.5 9.9-3.4 2.5-1.8 4.8-4.3 6.8-7.6 2.2-3.1 4-6.5 5.4-10.3l4.3-10.4c1-2.4 1.9-5 2.9-7.9s1.9-5.5 2.7-7.7l23-65.3h16.4zm-72 0 23.2 65.3c.6 1.8 1.1 3.6 1.6 5.4.6 1.7 1.1 3.4 1.6 5.2h4.1l-5.2 11.7h-4.5c-1.3 0-2.5-.4-3.4-1.1-1-.7-1.7-1.7-2.2-2.9L324.5 469h16.3z"/><path class="st1" d="M481.1 466.8c10.8 0 18.5 4 23.2 11.9 4.7 7.8 7 19.3 7 34.6 0 11.3-1.2 20.3-3.6 27-2.4 6.6-6.1 11.3-11 14.2-4.9 2.9-11.1 4.3-18.5 4.3-5.8 0-11.5-.8-17.1-2.3s-11-4-16.2-7.2l.9-9.2c5.6 1.6 10.6 2.9 14.8 4 4.3 1 8.9 1.4 13.7 1.4 5.2 0 9.2-.9 12.2-2.7 3.1-1.8 5.4-5 6.8-9.7 1.4-4.7 2.2-11.3 2.2-19.8 0-8.3-.7-14.8-2-19.6-1.2-4.8-3.2-8.2-6.1-10.3-2.8-2.2-6.5-3.2-11.2-3.2-4.8 0-9.5 1.1-14.2 3.4-4.7 2.3-10.1 5.8-16.4 10.4l-1.6-10.3c3.2-3.5 6.9-6.5 11-9s8.3-4.4 12.8-5.8c4.5-1.4 9-2.1 13.3-2.1zm-37.6 2.2 1.8 18.2.9 2.3v56.2l-.7 2.2c.4 3.4.6 6.6.7 9.7s.1 6.4 0 9.9v25.4h-15.1V469h12.4z"/><path class="st1" d="M577.4 466.8c6.5 0 11.9.9 16.4 2.7 4.4 1.7 7.8 4.6 10.1 8.6 2.3 4.1 3.4 9.7 3.4 16.7v61.7h-12.1l-2.3-19.1-.9-2v-40.7c-.1-5.4-1.4-9.2-3.8-11.5-2.4-2.4-7.1-3.6-14-3.6-4.7 0-10.5.2-17.5.7-6.8.5-13.6 1-20.3 1.6l-1.4-11.3c4.1-.7 8.6-1.4 13.5-2 4.9-.6 9.9-1.1 14.9-1.4 5-.2 9.7-.4 14-.4zm22.7 35.8-.2 11.5-41.8.2c-4.2.1-7.2 1.3-9 3.4-1.7 2-2.5 4.9-2.5 8.6v5.6c0 4.6 1.1 7.9 3.2 10.1 2.3 2 5.8 3.1 10.4 3.1 3.4 0 7.1-.6 11.3-1.8 4.3-1.3 8.6-3.3 13-5.9 4.3-2.6 8.3-6 11.9-10.1v11.3c-1.2 1.7-3.1 3.7-5.6 5.9-2.4 2.2-5.3 4.3-8.8 6.5-3.4 2-7.1 3.8-11.3 5.2-4.2 1.3-8.7 2-13.5 2-5.2 0-9.7-.9-13.7-2.7-4-1.9-7-4.7-9.2-8.3-2.2-3.7-3.2-8.2-3.2-13.5v-9.5c0-6.8 2.1-12.1 6.3-15.8 4.3-3.8 10.3-5.8 18-5.8h44.7z"/><path class="st1" d="M670.8 468.1c9.1 0 16.3.7 21.6 2 5.4 1.3 9.3 3.7 11.7 7 2.4 3.4 3.6 8.2 3.6 14.4s-1.5 11-4.5 14.2c-2.9 3.1-7.7 5-14.4 5.6v.5c8.2.6 13.9 2.9 17.1 6.8 3.2 3.8 4.9 9.3 4.9 16.4 0 6-1.2 10.7-3.6 14-2.3 3.2-6 5.5-11.2 6.8-5 1.3-11.8 2-20.3 2-6.1 0-11.5-.1-16-.2-4.6 0-8.8-.1-12.6-.4-3.7-.1-7.7-.3-11.9-.5l2.2-11.3c2.4.1 6.8.2 13.3.4h22.9c5.4 0 9.7-.4 13-1.1 3.2-.8 5.5-2.3 6.8-4.3 1.4-2 2.2-4.9 2.2-8.6 0-5.6-1.7-9.5-5-11.5-3.4-2.2-9.3-3.2-17.8-3.2h-35.5v-11h35.5c5 0 9.1-.4 12.1-1.1 3-.7 5.2-2 6.5-4 1.3-2 2-4.8 2-8.3 0-3.4-.7-5.9-2.2-7.7-1.4-1.8-3.8-3.1-7.2-3.8-3.4-.7-7.9-1.1-13.5-1.1-5.2-.1-9.8-.2-14-.2-4.1 0-7.7.1-10.8.2-3.1 0-5.8.1-8.1.4l-2.2-11.3c3.7-.4 7.3-.6 10.6-.7s7-.2 11-.2c3.7-.2 8.4-.2 13.8-.2zm-21.3 1v87.7h-14.4v-87.7h14.4z"/><path class="st1" d="M770.6 466.8c13.2 0 22.7 2.4 28.6 7.2 6 4.8 9.1 11.9 9.2 21.4 0 7.8-1.7 13.9-5 18.4-3.2 4.3-8.5 6.5-15.8 6.5h-51.3v-11.9h47.3c3.8 0 6.4-1.3 7.6-4 1.3-2.8 1.9-5.8 1.8-9 0-5.6-1.6-9.7-4.9-12.1-3.2-2.4-8.8-3.6-16.7-3.6-6.4 0-11.4 1-15.1 2.9-3.6 1.8-6.2 5-7.7 9.7-1.4 4.6-2.2 11-2.2 19.3 0 9.4.9 16.5 2.7 21.4 1.9 4.9 4.9 8.3 9 10.1 4.1 1.8 9.5 2.7 16.2 2.7 4.8 0 10-.2 15.5-.5 5.6-.5 10.7-1 15.1-1.6l1.4 10.3c-2.6 1.1-6 2-10.1 2.7-4.1.7-8.3 1.3-12.6 1.6-4.2.4-8 .5-11.3.5-10 0-18.1-1.5-24.3-4.5-6.1-3.1-10.6-8-13.3-14.8-2.8-6.8-4.1-15.8-4.1-27 0-11.5 1.4-20.6 4.1-27.2 2.9-6.7 7.3-11.5 13.1-14.2 5.8-2.9 13.5-4.3 22.8-4.3z"/><path class="st1" d="M908.9 469v87.7H895v-58.1c0-1.9.1-3.8.2-5.6.1-1.9.2-4 .4-6.1h-.4c-.7 1.7-1.7 3.5-2.9 5.4-1.1 1.8-2.2 3.4-3.2 4.9l-44.6 59.6h-12.6V469h13.9v58.1c0 1.9-.1 3.8-.2 5.8 0 1.8-.1 3.8-.4 5.9h.4c1-1.8 2-3.6 3.1-5.4 1.1-1.8 2.2-3.4 3.2-4.7l44.6-59.8h12.4zm-23.8-38.9h11.7c.4 4.7-.5 8.9-2.7 12.6-2 3.7-5.2 6.7-9.4 9-4.1 2.2-9 3.2-14.8 3.2s-10.7-1.1-14.9-3.2c-4.2-2.3-7.4-5.3-9.5-9-2-3.7-2.9-7.9-2.7-12.6h11.7c0 5.2 1.3 9.2 4 12.1 2.8 2.8 6.6 4.1 11.5 4.1 4.8 0 8.5-1.4 11.2-4.1 2.6-2.9 3.9-7 3.9-12.1z"/><path class="st2" d="M346.8 597.7c5.9 0 10.6.7 14.2 2.1 3.6 1.3 6.2 3.5 7.8 6.5s2.4 7 2.4 11.9-.8 8.9-2.4 11.9c-1.6 3-4.2 5.1-7.8 6.5-3.5 1.3-8.2 2-14.2 2-5.9 0-10.7-.7-14.2-2-3.6-1.3-6.2-3.5-7.8-6.5-1.6-3-2.4-7-2.4-11.9 0-5 .8-8.9 2.4-11.9 1.6-3 4.2-5.1 7.8-6.5 3.5-1.4 8.3-2.1 14.2-2.1zm-.1 5.8c-4.4 0-7.9.5-10.5 1.4-2.6.9-4.5 2.3-5.6 4.5-1.1 2.1-1.7 5.1-1.7 8.9 0 3.7.6 6.7 1.7 8.8 1.1 2.1 3 3.7 5.6 4.6 2.6.9 6.1 1.3 10.5 1.3s7.9-.4 10.5-1.3c2.6-.9 4.5-2.4 5.6-4.6 1.1-2.1 1.7-5.1 1.7-8.8 0-3.8-.6-6.7-1.7-8.9-1.1-2.1-3-3.6-5.6-4.5-2.6-1-6.1-1.4-10.5-1.4zm3.2-21.9v17.2l-.2 1.5v34.9l.2 1.8v16.7h-6.3V637l.2-1.8v-34.8l-.2-1.6v-17.2h6.3z"/><path class="st2" d="M416.1 598.7v39h-6.2v-25.8c0-.9 0-1.7.1-2.5.1-.9.1-1.8.2-2.7h-.2c-.3.7-.7 1.5-1.3 2.4-.5.8-1 1.5-1.4 2.2l-19.8 26.5h-5.6v-39h6.2v25.8c0 .9 0 1.7-.1 2.6 0 .8-.1 1.7-.2 2.6h.2c.4-.8.9-1.6 1.4-2.4.5-.8 1-1.5 1.4-2.1l19.8-26.6h5.5z"/><path class="st2" d="M445.5 598.7v39h-6.8v-39h6.8zm14.1 0v5.6h-35v-5.6h35z"/><path class="st2" d="M474.7 598.7v39H468v-39h6.7zm21.2 15.6v5.2h-21.7v-5.2h21.7zm6-15.6v39h-6.7v-39h6.7z"/><path class="st2" d="M530.6 597.7c5.9 0 10.1 1.1 12.7 3.2 2.7 2.1 4 5.3 4.1 9.5 0 3.5-.7 6.2-2.2 8.2-1.4 1.9-3.8 2.9-7 2.9h-22.8v-5.3h21c1.7 0 2.8-.6 3.4-1.8.6-1.2.9-2.6.8-4 0-2.5-.7-4.3-2.2-5.4-1.4-1.1-3.9-1.6-7.4-1.6-2.8 0-5.1.4-6.7 1.3-1.6.8-2.7 2.2-3.4 4.3-.6 2-1 4.9-1 8.6 0 4.2.4 7.3 1.2 9.5.9 2.2 2.2 3.7 4 4.5 1.8.8 4.2 1.2 7.2 1.2 2.1 0 4.4-.1 6.9-.2 2.5-.2 4.7-.5 6.7-.7l.6 4.6c-1.2.5-2.7.9-4.5 1.2-1.8.3-3.7.6-5.6.7-1.9.2-3.5.2-5 .2-4.4 0-8-.7-10.8-2-2.7-1.4-4.7-3.6-5.9-6.6-1.2-3-1.8-7-1.8-12 0-5.1.6-9.1 1.8-12.1 1.3-3 3.2-5.1 5.8-6.3 2.5-1.3 5.9-1.9 10.1-1.9z"/><path class="st2" d="M574.4 597.7c1.2 0 2.5.1 3.9.2 1.5.1 3 .3 4.5.6s2.9.6 4.2 1.1l-.9 4.4c-1.8-.2-3.6-.3-5.6-.3-1.9-.1-3.6-.2-5-.2-3 0-5.5.4-7.4 1.3-1.8.9-3.1 2.3-3.9 4.5-.8 2.1-1.2 5.1-1.2 8.9s.4 6.8 1.2 9c.8 2.1 2.1 3.6 3.9 4.5 1.9.9 4.3 1.3 7.4 1.3.8 0 1.8 0 3.1-.1s2.7-.1 4.2-.2 2.9-.3 4.2-.5l.6 4.6c-1.9.7-4.1 1.2-6.4 1.5-2.3.3-4.6.5-6.9.5-4.5 0-8.1-.7-10.8-2-2.7-1.3-4.7-3.5-5.9-6.5-1.2-3-1.8-7-1.8-12s.6-9 1.8-12c1.2-3 3.2-5.1 5.9-6.4 2.8-1.5 6.4-2.2 10.9-2.2z"/><path class="st2" d="M647.7 598.7c-.9 2.3-1.7 4.4-2.5 6.3-.7 1.9-1.5 3.5-2.3 5-.7 1.4-1.6 2.7-2.6 3.7-.9 1-2 1.8-3.2 2.5-1.2.6-2.7 1-4.3 1.1v.2c1.8.2 3.3.5 4.6 1.1 1.3.6 2.4 1.4 3.4 2.5 1 1 1.9 2.3 2.7 3.8.9 1.5 1.7 3.4 2.6 5.5.9 2.1 1.8 4.5 2.8 7.2h-7.1c-1-2.5-1.8-4.7-2.6-6.6-.8-2-1.6-3.7-2.4-5-.7-1.4-1.6-2.5-2.5-3.4-.9-.9-2-1.5-3.2-1.9-1.2-.4-2.6-.6-4.2-.6v-5.3c1.9 0 3.5-.3 4.9-1 1.3-.7 2.5-1.8 3.4-3.2 1-1.4 1.9-3.1 2.8-5 .9-2 1.8-4.2 2.7-6.8h7zm-26 0v11.6c0 1.2-.1 2.3-.2 3.5-.2 1.2-.4 2.3-.7 3.4.3 1.1.6 2.2.7 3.4.2 1.1.2 2.2.2 3.2v13.8h-6.8v-39h6.8zm7.6 16v5.3h-9.6v-5.3h9.6z"/><path class="st2" d="M689 598.7v5.4h-14.2c-1.7 0-2.9.4-3.6 1.1-.7.7-1.2 1.9-1.4 3.8-.3 2.3-.6 4.7-1 7.2-.3 2.5-.7 4.8-1.1 7.1-.4 2.3-1 4.3-1.7 6.2-.6 1.9-1.5 3.4-2.6 4.7-1.1 1.3-2.5 2.2-4.1 2.9-1.5.6-3.4 1-5.5 1l-.7-5.2c1.4-.4 2.6-.8 3.4-1.3.9-.5 1.6-1.1 2.1-1.8s1-1.5 1.4-2.4c.5-1.3.9-2.7 1.3-4.4s.7-3.4 1-5.2c.3-1.8.5-3.6.6-5.3.2-1.8.4-3.3.6-4.7.4-3 1.3-5.3 2.9-6.8 1.6-1.5 4-2.3 7.3-2.3H689zm1.1 0v39h-6.8v-39h6.8z"/><path class="st2" d="m737.3 598.7-15.5 41.1c-.4 1.1-1 2.4-1.7 3.8-.6 1.4-1.4 2.7-2.4 4.1-.9 1.4-2 2.6-3.3 3.5-2 1.5-4.2 2.4-6.6 2.6-2.4.3-5 .3-7.8-.1l.6-4.7c1.7.1 3.4 0 5-.2 1.7-.2 3.1-.7 4.4-1.5 1.1-.8 2.1-1.9 3-3.4 1-1.4 1.8-2.9 2.4-4.6l1.9-4.6c.4-1.1.9-2.2 1.3-3.5.4-1.3.8-2.4 1.2-3.4l10.2-29h7.3zm-32 0 10.3 29c.3.8.5 1.6.7 2.4.3.7.5 1.5.7 2.3h1.8l-2.3 5.2h-2c-.6 0-1.1-.2-1.5-.5s-.7-.7-1-1.3l-14-37.1h7.3z"/><path class="st2" d="m776.9 578.7 1.6 5.3c-1.6 1-3.1 1.8-4.5 2.3-1.4.5-2.7.9-4.1 1.2-1.3.3-2.6.5-4 .8-1.3.2-2.7.5-4.2 1-2.7.7-4.9 1.8-6.4 3.2-1.5 1.4-2.6 2.9-3.3 4.6-.7 1.7-1.2 3.5-1.4 5.4-.2 1.2-.4 2.3-.5 3.4-.1 1-.2 1.8-.2 2.3h.2c.4-1 1-1.9 1.6-2.9.7-1 1.6-1.9 2.6-2.7 1.1-.8 2.5-1.4 4.2-1.9 1.7-.5 3.8-.7 6.4-.7 3.8 0 6.9.6 9.1 1.9 2.3 1.3 3.9 3.3 4.9 6.1 1 2.7 1.5 6.3 1.5 10.8 0 4.1-.5 7.7-1.4 10.6-1 3-2.7 5.3-5.4 6.9-2.6 1.6-6.2 2.4-11 2.4-3.4 0-6.1-.4-8.3-1.2-2.2-.8-3.9-1.9-5.2-3.4-1.3-1.4-2.2-3.2-2.9-5.2-.6-2-1-4.3-1.2-6.7-.2-2.5-.2-5.2-.2-8 0-4.2.2-8 .5-11.3.4-3.3 1-6.2 2-8.6 1-2.5 2.5-4.5 4.5-6.2 2-1.7 4.6-3 7.8-4 1.5-.5 3-.9 4.4-1.1 1.4-.3 2.9-.5 4.2-.8 1.4-.3 2.8-.6 4.2-1.1 1.3-.6 2.9-1.4 4.5-2.4zm-13.8 26.9c-3.2 0-5.6.5-7.3 1.5-1.6 1-2.7 2.5-3.3 4.4-.5 1.9-.8 4.3-.8 7.1 0 3.6.3 6.4 1 8.5.7 2.1 1.8 3.5 3.4 4.4 1.6.9 3.7 1.3 6.4 1.3 2.6 0 4.7-.4 6.2-1.3s2.7-2.3 3.4-4.3c.7-2.1 1-4.9 1-8.6 0-3.4-.3-6-1-7.8-.6-1.9-1.6-3.3-3.1-4-1.3-.8-3.3-1.2-5.9-1.2z"/></svg>