<svg width="1331" height="1331" fill="none" xmlns="http://www.w3.org/2000/svg"><path d="M665.5 1331L89.1601 332.75L1241.84 332.75L665.5 1331Z" fill="#0F0F0F"/><path d="M384.02 686.801C388.34 686.801 390.5 689.021 390.5 693.461L395.72 811.001H379.88L375.38 699.941H371.6L343.88 791.561C342.92 795.161 340.64 796.961 337.04 796.961H322.82C319.1 796.961 316.7 795.161 315.62 791.561L287.9 699.941H284.3L279.98 811.001H264.14L269 693.461C269.24 689.021 271.46 686.801 275.66 686.801H293.66C297.02 686.801 299.24 688.601 300.32 692.201L323.54 767.981C324.5 770.741 325.28 773.501 325.88 776.261C326.6 779.021 327.38 781.841 328.22 784.721H331.46C332.3 781.841 333.08 779.021 333.8 776.261C334.52 773.501 335.3 770.621 336.14 767.621L359.36 692.201C360.32 688.601 362.6 686.801 366.2 686.801H384.02Z" fill="#151515"/><path d="M500.831 723.341L465.911 815.861C464.951 818.381 463.691 821.201 462.131 824.321C460.691 827.441 458.891 830.501 456.731 833.501C454.691 836.621 452.231 839.261 449.351 841.421C444.911 844.781 439.931 846.761 434.411 847.361C429.011 848.081 423.131 848.021 416.771 847.181L418.211 836.561C422.051 836.681 425.771 836.501 429.371 836.021C433.091 835.661 436.391 834.521 439.271 832.601C441.791 830.801 444.071 828.281 446.111 825.041C448.271 821.921 450.071 818.501 451.511 814.781L455.831 804.341C456.791 801.941 457.751 799.301 458.711 796.421C459.671 793.541 460.571 790.961 461.411 788.681L484.451 723.341H500.831ZM428.831 723.341L452.051 788.681C452.651 790.481 453.191 792.281 453.671 794.081C454.271 795.761 454.811 797.501 455.291 799.301H459.431L454.211 811.001H449.711C448.391 811.001 447.251 810.641 446.291 809.921C445.331 809.201 444.611 808.241 444.131 807.041L412.451 723.341H428.831Z" fill="#151515"/><path d="M569.092 721.181C579.892 721.181 587.632 725.141 592.312 733.061C596.992 740.861 599.332 752.381 599.332 767.621C599.332 778.901 598.132 787.901 595.732 794.621C593.332 801.221 589.672 805.961 584.752 808.841C579.832 811.721 573.652 813.161 566.212 813.161C560.452 813.161 554.752 812.381 549.112 810.821C543.472 809.261 538.072 806.861 532.912 803.621L533.812 794.441C539.452 796.001 544.372 797.321 548.572 798.401C552.892 799.361 557.452 799.841 562.252 799.841C567.412 799.841 571.492 798.941 574.492 797.141C577.612 795.341 579.892 792.101 581.332 787.421C582.772 782.741 583.492 776.141 583.492 767.621C583.492 759.341 582.832 752.801 581.512 748.001C580.312 743.201 578.272 739.781 575.392 737.741C572.632 735.581 568.912 734.501 564.232 734.501C559.432 734.501 554.692 735.641 550.012 737.921C545.332 740.201 539.872 743.681 533.632 748.361L532.012 738.101C535.252 734.621 538.912 731.621 542.992 729.101C547.072 726.581 551.332 724.661 555.772 723.341C560.332 721.901 564.772 721.181 569.092 721.181ZM531.472 723.341L533.272 741.521L534.172 743.861V800.021L533.452 802.181C533.812 805.541 534.052 808.781 534.172 811.901C534.292 815.021 534.292 818.321 534.172 821.801V847.181H519.052V723.341H531.472Z" fill="#151515"/><path d="M665.393 721.181C671.873 721.181 677.333 722.081 681.773 723.881C686.213 725.561 689.573 728.441 691.853 732.521C694.133 736.601 695.273 742.181 695.273 749.261V811.001H683.213L680.873 791.921L679.973 789.941V749.261C679.853 743.861 678.593 740.021 676.193 737.741C673.793 735.341 669.113 734.141 662.153 734.141C657.473 734.141 651.653 734.381 644.693 734.861C637.853 735.341 631.073 735.881 624.353 736.481L622.913 725.141C626.993 724.421 631.493 723.761 636.413 723.161C641.333 722.561 646.313 722.081 651.353 721.721C656.393 721.361 661.073 721.181 665.393 721.181ZM688.073 757.001L687.893 768.521L646.133 768.701C641.933 768.821 638.933 769.961 637.133 772.121C635.453 774.161 634.613 777.041 634.613 780.761V786.341C634.613 790.901 635.693 794.261 637.853 796.421C640.133 798.461 643.613 799.481 648.293 799.481C651.653 799.481 655.433 798.881 659.633 797.681C663.953 796.361 668.273 794.381 672.593 791.741C676.913 789.101 680.873 785.741 684.473 781.661V793.001C683.273 794.681 681.413 796.661 678.893 798.941C676.493 801.101 673.553 803.261 670.073 805.421C666.713 807.461 662.933 809.201 658.733 810.641C654.533 811.961 650.033 812.621 645.233 812.621C640.073 812.621 635.513 811.721 631.553 809.921C627.593 808.001 624.533 805.241 622.373 801.641C620.213 797.921 619.133 793.421 619.133 788.141V778.601C619.133 771.761 621.233 766.481 625.433 762.761C629.753 758.921 635.753 757.001 643.433 757.001H688.073Z" fill="#151515"/><path d="M758.77 722.441C767.89 722.441 775.09 723.101 780.37 724.421C785.77 725.741 789.67 728.081 792.07 731.441C794.47 734.801 795.67 739.601 795.67 745.841C795.67 752.081 794.17 756.821 791.17 760.061C788.29 763.181 783.49 765.041 776.77 765.641V766.181C784.93 766.781 790.63 769.061 793.87 773.021C797.11 776.861 798.73 782.321 798.73 789.401C798.73 795.401 797.53 800.081 795.13 803.441C792.85 806.681 789.13 808.961 783.97 810.281C778.93 811.601 772.15 812.261 763.63 812.261C757.51 812.261 752.17 812.201 747.61 812.081C743.05 812.081 738.85 811.961 735.01 811.721C731.29 811.601 727.33 811.421 723.13 811.181L725.29 799.841C727.69 799.961 732.13 800.081 738.61 800.201C745.09 800.201 752.71 800.201 761.47 800.201C766.87 800.201 771.19 799.841 774.43 799.121C777.67 798.281 779.95 796.841 781.27 794.801C782.71 792.761 783.43 789.881 783.43 786.161C783.43 780.521 781.75 776.681 778.39 774.641C775.03 772.481 769.09 771.401 760.57 771.401H725.11V760.421H760.57C765.61 760.421 769.63 760.061 772.63 759.341C775.63 758.621 777.79 757.301 779.11 755.381C780.43 753.341 781.09 750.581 781.09 747.101C781.09 743.741 780.37 741.161 778.93 739.361C777.49 737.561 775.09 736.301 771.73 735.581C768.37 734.861 763.87 734.501 758.23 734.501C753.07 734.381 748.39 734.321 744.19 734.321C740.11 734.321 736.51 734.381 733.39 734.501C730.27 734.501 727.57 734.621 725.29 734.861L723.13 723.521C726.85 723.161 730.39 722.921 733.75 722.801C737.11 722.681 740.77 722.621 744.73 722.621C748.69 722.501 753.37 722.441 758.77 722.441ZM737.53 723.521V811.181H723.13V723.521H737.53Z" fill="#151515"/><path d="M858.622 721.181C871.822 721.181 881.362 723.581 887.242 728.381C893.242 733.181 896.302 740.321 896.422 749.801C896.422 757.601 894.742 763.721 891.382 768.161C888.142 772.481 882.862 774.641 875.542 774.641H824.242V762.761H871.582C875.422 762.761 877.942 761.441 879.142 758.801C880.462 756.041 881.062 753.041 880.942 749.801C880.942 744.161 879.322 740.141 876.082 737.741C872.842 735.341 867.262 734.141 859.342 734.141C852.982 734.141 847.942 735.101 844.222 737.021C840.622 738.821 838.042 742.061 836.482 746.741C835.042 751.301 834.322 757.721 834.322 766.001C834.322 775.361 835.222 782.501 837.022 787.421C838.942 792.341 841.942 795.701 846.022 797.501C850.102 799.301 855.502 800.201 862.222 800.201C867.022 800.201 872.182 800.021 877.702 799.661C883.342 799.181 888.382 798.641 892.822 798.041L894.262 808.301C891.622 809.381 888.262 810.281 884.182 811.001C880.102 811.721 875.902 812.261 871.582 812.621C867.382 812.981 863.602 813.161 860.242 813.161C850.282 813.161 842.182 811.661 835.942 808.661C829.822 805.541 825.382 800.621 822.622 793.901C819.862 787.061 818.482 778.061 818.482 766.901C818.482 755.381 819.862 746.321 822.622 739.721C825.502 733.001 829.882 728.261 835.762 725.501C841.642 722.621 849.262 721.181 858.622 721.181Z" fill="#151515"/><path d="M996.869 723.341V811.001H983.009V752.861C983.009 750.941 983.069 749.081 983.189 747.281C983.309 745.361 983.429 743.321 983.549 741.161H983.189C982.469 742.841 981.509 744.641 980.309 746.561C979.229 748.361 978.149 749.981 977.069 751.421L932.429 811.001H919.829V723.341H933.689V781.481C933.689 783.401 933.629 785.321 933.509 787.241C933.509 789.041 933.389 791.021 933.149 793.181H933.509C934.469 791.381 935.489 789.581 936.569 787.781C937.649 785.981 938.729 784.421 939.809 783.101L984.449 723.341H996.869ZM973.109 684.461H984.809C985.169 689.141 984.269 693.341 982.109 697.061C980.069 700.781 976.949 703.781 972.749 706.061C968.669 708.221 963.749 709.301 957.989 709.301C952.229 709.301 947.249 708.221 943.049 706.061C938.849 703.781 935.669 700.781 933.509 697.061C931.469 693.341 930.569 689.141 930.809 684.461H942.509C942.509 689.621 943.829 693.641 946.469 696.521C949.229 699.281 953.069 700.661 957.989 700.661C962.789 700.661 966.509 699.281 969.149 696.521C971.789 693.641 973.109 689.621 973.109 684.461Z" fill="#151515"/><path d="M434.8 852.079C440.72 852.079 445.44 852.772 448.96 854.159C452.534 855.492 455.12 857.652 456.72 860.639C458.32 863.626 459.12 867.599 459.12 872.559C459.12 877.466 458.32 881.439 456.72 884.479C455.12 887.466 452.534 889.626 448.96 890.959C445.44 892.292 440.72 892.959 434.8 892.959C428.88 892.959 424.134 892.292 420.56 890.959C416.987 889.626 414.4 887.466 412.8 884.479C411.2 881.439 410.4 877.466 410.4 872.559C410.4 867.599 411.2 863.626 412.8 860.639C414.4 857.652 416.987 855.492 420.56 854.159C424.134 852.772 428.88 852.079 434.8 852.079ZM434.72 857.839C430.347 857.839 426.854 858.292 424.24 859.199C421.627 860.052 419.76 861.546 418.64 863.679C417.52 865.812 416.96 868.772 416.96 872.559C416.96 876.292 417.52 879.226 418.64 881.359C419.76 883.492 421.627 885.012 424.24 885.919C426.854 886.772 430.347 887.199 434.72 887.199C439.147 887.199 442.64 886.772 445.2 885.919C447.814 885.012 449.68 883.492 450.8 881.359C451.92 879.226 452.48 876.292 452.48 872.559C452.48 868.772 451.92 865.812 450.8 863.679C449.68 861.546 447.814 860.052 445.2 859.199C442.64 858.292 439.147 857.839 434.72 857.839ZM437.92 835.999V853.199L437.68 854.719V889.599L437.92 891.359V908.079H431.6V891.359L431.84 889.599V854.799L431.6 853.199V835.999H437.92Z" fill="#181818"/><path d="M504.06 853.039V891.999H497.9V866.159C497.9 865.306 497.927 864.479 497.98 863.679C498.034 862.826 498.087 861.919 498.14 860.959H497.98C497.66 861.706 497.234 862.506 496.7 863.359C496.22 864.159 495.74 864.879 495.26 865.519L475.42 891.999H469.82V853.039H475.98V878.879C475.98 879.732 475.954 880.586 475.9 881.439C475.9 882.239 475.847 883.119 475.74 884.079H475.9C476.327 883.279 476.78 882.479 477.26 881.679C477.74 880.879 478.22 880.186 478.7 879.599L498.54 853.039H504.06Z" fill="#181818"/><path d="M533.494 853.039V891.999H526.694V853.039H533.494ZM547.574 853.039V858.639H512.534V853.039H547.574Z" fill="#181818"/><path d="M562.712 853.039V891.999H555.992V853.039H562.712ZM583.912 868.719V873.919H562.232V868.719H583.912ZM589.912 853.039V891.999H583.192V853.039H589.912Z" fill="#181818"/><path d="M618.555 852.079C624.421 852.079 628.661 853.146 631.275 855.279C633.941 857.412 635.301 860.586 635.355 864.799C635.355 868.266 634.608 870.986 633.115 872.959C631.675 874.879 629.328 875.839 626.075 875.839H603.275V870.559H624.315C626.021 870.559 627.141 869.972 627.675 868.799C628.261 867.572 628.528 866.239 628.475 864.799C628.475 862.292 627.755 860.506 626.315 859.439C624.875 858.372 622.395 857.839 618.875 857.839C616.048 857.839 613.808 858.266 612.155 859.119C610.555 859.919 609.408 861.359 608.715 863.439C608.075 865.466 607.755 868.319 607.755 871.999C607.755 876.159 608.155 879.332 608.955 881.519C609.808 883.706 611.141 885.199 612.955 885.999C614.768 886.799 617.168 887.199 620.155 887.199C622.288 887.199 624.581 887.119 627.035 886.959C629.541 886.746 631.781 886.506 633.755 886.239L634.395 890.799C633.221 891.279 631.728 891.679 629.915 891.999C628.101 892.319 626.235 892.559 624.315 892.719C622.448 892.879 620.768 892.959 619.275 892.959C614.848 892.959 611.248 892.292 608.475 890.959C605.755 889.572 603.781 887.386 602.555 884.399C601.328 881.359 600.715 877.359 600.715 872.399C600.715 867.279 601.328 863.252 602.555 860.319C603.835 857.332 605.781 855.226 608.395 853.999C611.008 852.719 614.395 852.079 618.555 852.079Z" fill="#181818"/><path d="M662.398 852.079C663.571 852.079 664.878 852.132 666.318 852.239C667.811 852.346 669.305 852.532 670.798 852.799C672.291 853.066 673.678 853.439 674.958 853.919L674.078 858.319C672.318 858.159 670.451 858.052 668.478 857.999C666.558 857.892 664.905 857.839 663.518 857.839C660.478 857.839 658.025 858.266 656.158 859.119C654.345 859.972 653.038 861.466 652.238 863.599C651.438 865.732 651.038 868.692 651.038 872.479C651.038 876.266 651.438 879.252 652.238 881.439C653.038 883.572 654.345 885.066 656.158 885.919C658.025 886.772 660.478 887.199 663.518 887.199C664.318 887.199 665.358 887.172 666.638 887.119C667.971 887.066 669.358 886.986 670.798 886.879C672.291 886.772 673.705 886.612 675.038 886.399L675.678 890.959C673.758 891.652 671.625 892.159 669.278 892.479C666.985 892.799 664.691 892.959 662.398 892.959C657.918 892.959 654.318 892.292 651.598 890.959C648.878 889.626 646.905 887.466 645.678 884.479C644.505 881.492 643.918 877.492 643.918 872.479C643.918 867.466 644.505 863.466 645.678 860.479C646.905 857.492 648.878 855.359 651.598 854.079C654.318 852.746 657.918 852.079 662.398 852.079Z" fill="#181818"/><path d="M735.665 853.039C734.812 855.332 733.985 857.439 733.185 859.359C732.439 861.226 731.665 862.879 730.865 864.319C730.119 865.759 729.265 866.986 728.305 867.999C727.399 869.012 726.332 869.839 725.105 870.479C723.879 871.066 722.439 871.439 720.785 871.599V871.839C722.545 871.999 724.065 872.372 725.345 872.959C726.625 873.546 727.745 874.372 728.705 875.439C729.719 876.452 730.625 877.732 731.425 879.279C732.279 880.826 733.132 882.666 733.985 884.799C734.839 886.879 735.772 889.279 736.785 891.999H729.665C728.705 889.492 727.825 887.279 727.025 885.359C726.225 883.386 725.425 881.706 724.625 880.319C723.879 878.932 723.052 877.812 722.145 876.959C721.239 876.052 720.172 875.412 718.945 875.039C717.772 874.612 716.385 874.399 714.785 874.399V869.119C716.705 869.119 718.332 868.772 719.665 868.079C720.999 867.332 722.145 866.266 723.105 864.879C724.119 863.492 725.052 861.812 725.905 859.839C726.759 857.866 727.665 855.599 728.625 853.039H735.665ZM709.745 853.039V864.639C709.745 865.812 709.665 866.986 709.505 868.159C709.345 869.332 709.105 870.479 708.785 871.599C709.105 872.719 709.345 873.839 709.505 874.959C709.665 876.079 709.745 877.146 709.745 878.159V891.999H702.945V853.039H709.745ZM717.345 869.119V874.399H707.745V869.119H717.345Z" fill="#181818"/><path d="M777.036 853.039V858.399H762.796C761.143 858.399 759.943 858.772 759.196 859.519C758.503 860.212 758.023 861.466 757.756 863.279C757.489 865.626 757.169 868.026 756.796 870.479C756.476 872.932 756.103 875.306 755.676 877.599C755.249 879.892 754.689 881.946 753.996 883.759C753.356 885.626 752.476 887.199 751.356 888.479C750.236 889.759 748.876 890.719 747.276 891.359C745.729 891.999 743.889 892.346 741.756 892.399L741.036 887.199C742.476 886.826 743.623 886.399 744.476 885.919C745.383 885.439 746.076 884.852 746.556 884.159C747.089 883.466 747.543 882.666 747.916 881.759C748.396 880.479 748.823 879.012 749.196 877.359C749.569 875.706 749.889 873.972 750.156 872.159C750.423 870.346 750.636 868.586 750.796 866.879C751.009 865.119 751.196 863.546 751.356 862.159C751.729 859.172 752.689 856.906 754.236 855.359C755.836 853.812 758.263 853.039 761.516 853.039H777.036ZM778.076 853.039V891.999H771.276V853.039H778.076Z" fill="#181818"/><path d="M825.318 853.039L809.798 894.159C809.371 895.279 808.811 896.532 808.118 897.919C807.478 899.306 806.678 900.666 805.718 901.999C804.811 903.386 803.718 904.559 802.438 905.519C800.465 907.012 798.251 907.892 795.798 908.159C793.398 908.479 790.785 908.452 787.958 908.079L788.598 903.359C790.305 903.412 791.958 903.332 793.558 903.119C795.211 902.959 796.678 902.452 797.958 901.599C799.078 900.799 800.091 899.679 800.998 898.239C801.958 896.852 802.758 895.332 803.398 893.679L805.318 889.039C805.745 887.972 806.171 886.799 806.598 885.519C807.025 884.239 807.425 883.092 807.798 882.079L818.038 853.039H825.318ZM793.318 853.039L803.638 882.079C803.905 882.879 804.145 883.679 804.358 884.479C804.625 885.226 804.865 885.999 805.078 886.799H806.918L804.598 891.999H802.598C802.011 891.999 801.505 891.839 801.078 891.519C800.651 891.199 800.331 890.772 800.118 890.239L786.038 853.039H793.318Z" fill="#181818"/><path d="M864.856 833.039L866.456 838.319C864.856 839.332 863.363 840.106 861.976 840.639C860.589 841.172 859.229 841.572 857.896 841.839C856.616 842.106 855.283 842.372 853.896 842.639C852.563 842.852 851.149 843.172 849.656 843.599C846.936 844.346 844.803 845.412 843.256 846.799C841.763 848.186 840.669 849.732 839.976 851.439C839.283 853.146 838.803 854.932 838.536 856.799C838.323 858.026 838.163 859.146 838.056 860.159C837.949 861.172 837.869 861.946 837.816 862.479H837.976C838.403 861.519 838.936 860.559 839.576 859.599C840.269 858.586 841.149 857.679 842.216 856.879C843.336 856.079 844.749 855.439 846.456 854.959C848.163 854.479 850.296 854.239 852.856 854.239C856.696 854.239 859.736 854.879 861.976 856.159C864.269 857.439 865.896 859.466 866.856 862.239C867.869 864.959 868.376 868.559 868.376 873.039C868.376 877.146 867.896 880.692 866.936 883.679C865.976 886.666 864.189 888.959 861.576 890.559C859.016 892.159 855.336 892.959 850.536 892.959C847.176 892.959 844.403 892.559 842.216 891.759C840.029 890.959 838.296 889.839 837.016 888.399C835.736 886.959 834.776 885.226 834.136 883.199C833.549 881.172 833.149 878.932 832.936 876.479C832.776 873.972 832.696 871.306 832.696 868.479C832.696 864.266 832.856 860.506 833.176 857.199C833.549 853.892 834.216 851.012 835.176 848.559C836.189 846.106 837.683 844.052 839.656 842.399C841.629 840.692 844.216 839.359 847.416 838.399C848.963 837.919 850.429 837.546 851.816 837.279C853.256 837.012 854.669 836.746 856.056 836.479C857.443 836.212 858.856 835.839 860.296 835.359C861.736 834.826 863.256 834.052 864.856 833.039ZM851.096 859.999C847.896 859.999 845.469 860.506 843.816 861.519C842.216 862.532 841.123 863.999 840.536 865.919C840.003 867.839 839.736 870.212 839.736 873.039C839.736 876.612 840.083 879.439 840.776 881.519C841.469 883.599 842.616 885.066 844.216 885.919C845.816 886.772 847.949 887.199 850.616 887.199C853.229 887.199 855.309 886.772 856.856 885.919C858.403 885.066 859.523 883.626 860.216 881.599C860.909 879.519 861.256 876.666 861.256 873.039C861.256 869.679 860.936 867.066 860.296 865.199C859.709 863.279 858.669 861.946 857.176 861.199C855.736 860.399 853.709 859.999 851.096 859.999Z" fill="#181818"/></svg>