<svg width="50" height="50" fill="none" xmlns="http://www.w3.org/2000/svg"><path d="m20.06 34.66 14.805-14.805-2.94-2.94L20.06 28.78l-5.985-5.985-2.94 2.94 8.925 8.925ZM23 46c-2.905 0-5.635-.552-8.19-1.655-2.555-1.102-4.777-2.597-6.668-4.487-1.89-1.89-3.385-4.113-4.487-6.668C2.552 30.635 2 27.905 2 25c0-2.905.552-5.635 1.655-8.19 1.102-2.555 2.598-4.777 4.488-6.667 1.89-1.89 4.112-3.387 6.667-4.49C17.365 4.55 20.095 4 23 4c2.905 0 5.635.55 8.19 1.653 2.555 1.103 4.777 2.6 6.668 4.49 1.89 1.89 3.385 4.112 4.487 6.667C43.448 19.365 44 22.095 44 25c0 2.905-.552 5.635-1.655 8.19-1.102 2.555-2.597 4.778-4.487 6.668-1.89 1.89-4.113 3.385-6.668 4.487C28.635 45.448 25.905 46 23 46Z" fill="#348A3D"/></svg>