<svg width="30" height="30" fill="none" xmlns="http://www.w3.org/2000/svg"><path clip-rule="evenodd" d="M4.588 1h20.824A3.601 3.601 0 0 1 29 4.588v20.824A3.601 3.601 0 0 1 25.412 29H4.588A3.601 3.601 0 0 1 1 25.412V4.588A3.601 3.601 0 0 1 4.588 1Z" stroke="#fff" stroke-miterlimit="10"/><path d="M24.996 15.033a9.31 9.31 0 0 0-2.799-6.374A9.336 9.336 0 0 0 9.268 8.54a9.31 9.31 0 0 0-2.915 6.321c0 .134-.011.27-.011.407a9.147 9.147 0 0 0 1.337 4.773L6 25l5.165-1.64a9.354 9.354 0 0 0 12.577-3.502A9.319 9.319 0 0 0 25 15.268c0-.079-.004-.156-.004-.235Zm-9.325 8.004a7.843 7.843 0 0 1-4.314-1.285l-3.015.957.979-2.884a7.693 7.693 0 0 1-1.457-5.311 7.834 7.834 0 0 1 2.582-5.028 7.855 7.855 0 0 1 10.555.099 7.833 7.833 0 0 1 2.487 5.074c.016.2.027.402.027.607a7.806 7.806 0 0 1-2.313 5.505 7.828 7.828 0 0 1-5.531 2.266Z" fill="#fff"/><path d="M19.545 16.672c-.214-.107-1.311-.615-1.514-.687-.203-.072-.352-.105-.5.107-.147.21-.572.684-.702.82-.13.135-.256.16-.478.053a6.085 6.085 0 0 1-1.776-1.042 6.41 6.41 0 0 1-1.232-1.462c-.13-.205-.013-.326.096-.43.108-.105.213-.246.333-.37.032-.036.057-.07.08-.102a2.71 2.71 0 0 0 .142-.25.368.368 0 0 0-.02-.371c-.053-.105-.497-1.144-.683-1.567-.185-.422-.367-.353-.497-.353S12.516 11 12.367 11a.845.845 0 0 0-.59.267c-.25.224-.45.497-.583.8-.134.303-.2.63-.194.959.003.244.042.486.116.72.172.528.44 1.024.79 1.464.106.135 1.528 2.344 3.779 3.188 2.25.845 2.254.564 2.66.53.406-.035 1.31-.513 1.495-1.005.183-.492.183-.917.128-1.005-.056-.088-.201-.137-.423-.246Z" fill="#fff"/></svg>