<svg width="194" height="52" fill="none" xmlns="http://www.w3.org/2000/svg"><g clip-path="url(#logo_a)"><path d="M21.5 37 0 0h43L21.5 37Z" fill="#E73B22"/><path d="M35.17 37v1.482c1.77.048 3.013.43 3.73 1.1.717.669 1.1 1.816 1.1 3.442 0 1.578-.383 2.725-1.1 3.394-.717.67-1.96 1.004-3.73 1.1V49h-1.34v-1.482c-1.77-.048-3.013-.43-3.73-1.1-.717-.669-1.1-1.769-1.1-3.394 0-1.626.383-2.773 1.1-3.442.717-.67 1.96-1.052 3.778-1.1V37h1.292Zm-1.292 9.37v-6.74c-1.339.047-2.248.334-2.774.812-.478.478-.765 1.339-.765 2.63 0 1.243.24 2.055.765 2.534.526.43 1.435.717 2.774.764Zm1.244-6.74v6.74c1.339-.047 2.248-.334 2.774-.764.478-.479.765-1.34.765-2.534 0-1.243-.287-2.104-.765-2.63-.526-.526-1.435-.765-2.774-.813Z" fill="#AAA096"/><path d="M49 49h-1.277v-6.359h-.051c-.103.308-.307.615-.563.923L43.073 49H42v-8h1.277v5.282c0 .308 0 .667-.05 1.077h.05c.154-.359.358-.667.562-.923L47.876 41H49v8Z" fill="#AAA096"/><path d="M58 42.136h-2.8V49h-1.35v-6.864H51V41h7v1.136Z" fill="#AAA096"/><path d="M67 41v8h-1.39v-3.692h-4.22V49H60v-8h1.39v3.23h4.22V41H67Z" fill="#AAA096"/><path d="M73.086 45.683H69.41c.05.878.302 1.463.655 1.756.352.293.957.439 1.813.439.906 0 1.813-.049 2.72-.195l.15.878c-.705.293-1.712.439-3.021.439-1.36 0-2.317-.293-2.87-.927-.555-.634-.857-1.658-.857-3.122 0-1.463.302-2.488.856-3.073s1.46-.878 2.77-.878c1.158 0 2.014.195 2.568.634.554.39.806 1.024.806 1.854-.05 1.463-.655 2.195-1.914 2.195Zm-3.676-1.025h3.324c.604 0 .856-.39.856-1.121 0-.488-.151-.83-.453-1.025-.302-.195-.806-.293-1.511-.293-.806 0-1.41.196-1.712.537-.302.293-.454.976-.504 1.902Z" fill="#AAA096"/><path d="m82.858 47.724.142.883c-.709.246-1.56.393-2.504.393-1.275 0-2.173-.294-2.693-.883-.52-.59-.803-1.62-.803-3.142 0-1.472.284-2.503.803-3.092.52-.589 1.418-.883 2.693-.883.945 0 1.748.098 2.362.344l-.189.883c-.661-.05-1.322-.098-1.984-.098-.898 0-1.512.196-1.843.589-.33.392-.52 1.178-.52 2.257 0 1.13.19 1.865.52 2.258.331.393.945.59 1.843.59.803.048 1.56 0 2.173-.1Z" fill="#AAA096"/><path d="M89 45h-5v-1h5v1Z" fill="#AAA096"/><path d="M94.709 44.822c.313.05.575.102.784.203.209.051.47.204.626.408l.523.51c.157.153.313.407.47.815.157.357.313.713.418.968.104.255.261.714.47 1.274h-1.41c-.21-.459-.314-.815-.418-1.02-.053-.203-.21-.458-.366-.814-.157-.357-.261-.56-.366-.663-.104-.102-.209-.255-.365-.458a1.195 1.195 0 0 0-.418-.357c-.157-.051-.314-.102-.47-.204a2.68 2.68 0 0 0-.627-.102h-1.202c.052.357.052.612.052.765v2.802H91v-7.898h1.41v2.344c0 .306-.052.611-.104.917h1.15c.365 0 .73-.05.992-.204.261-.153.522-.356.783-.713.21-.357.418-.663.575-.968.157-.306.313-.765.575-1.427h1.462c-.156.357-.209.611-.313.764-.052.153-.157.357-.261.663-.105.306-.21.458-.262.611-.052.153-.156.255-.26.459a1.777 1.777 0 0 1-.314.458 915 915 0 0 1-.314.306c-.156.102-.26.204-.418.255-.104.05-.26.102-.417.153-.157.05-.366.153-.575.153Z" fill="#AAA096"/><path d="M106 41.05v7.9h-1.277v-6.836h-1.608c-.331 0-.52.05-.662.203-.142.151-.237.404-.284.759-.237 2.076-.473 3.494-.71 4.152-.378 1.164-1.135 1.721-2.317 1.772L99 47.937c.378-.102.662-.253.851-.405.19-.152.331-.405.426-.71.237-.657.473-1.974.662-3.949.047-.607.237-1.113.568-1.417.284-.304.757-.456 1.371-.456H106v.05Z" fill="#AAA096"/><path d="m117 41.099-3.159 8.107c-.408 1.087-.917 1.828-1.478 2.224-.713.494-1.681.692-2.955.494l.153-.939c.866.05 1.477-.05 1.885-.346.458-.297.815-.84 1.121-1.582l.153-.346h-.357c-.255 0-.408-.099-.509-.346L109 41h1.478l2.089 5.734c.102.346.204.643.306.94h.203c.051-.199.204-.545.306-.94L115.471 41H117v.099Z" fill="#AAA096"/><path d="m124.31 37 .296 1.05c-.395.25-.74.4-1.085.55-.345.1-.739.2-1.183.3-.444.1-.789.15-1.035.2-.74.2-1.282.55-1.578 1-.295.45-.542 1-.591 1.65-.049.3-.099.7-.148 1.15h.049c.197-.5.542-.9.937-1.2.443-.3 1.084-.45 1.972-.45 1.133 0 1.922.3 2.366.85.444.6.69 1.55.69 2.9 0 1.35-.246 2.35-.739 3-.493.65-1.43 1-2.761 1-.641 0-1.183-.1-1.627-.25-.443-.15-.788-.4-1.035-.65-.246-.25-.444-.6-.542-1.1-.148-.45-.197-.9-.247-1.3-.049-.4-.049-.95-.049-1.6 0-.75 0-1.35.049-1.85.05-.5.099-1 .247-1.5s.296-.9.493-1.2c.197-.3.493-.6.838-.85s.788-.45 1.281-.6c.296-.1.641-.15 1.085-.25.444-.1.838-.2 1.232-.3.345-.15.69-.3 1.085-.55Zm-2.711 5.4c-.888 0-1.479.2-1.775.6-.296.4-.444 1.05-.444 2 0 1.05.148 1.8.493 2.2.296.4.888.6 1.676.6.789 0 1.331-.2 1.627-.6.296-.4.444-1.15.444-2.2 0-1-.148-1.7-.444-2.05-.296-.4-.838-.55-1.577-.55Z" fill="#AAA096"/><path d="M183.975 8 180 1h8l-4.025 7Z" fill="#fff"/><path d="M72.734 9H78l-8.465 16.73C67.615 29.5 65.4 31 62.349 31c-1.87 0-3.347-.483-4.774-1.257l1.87-3.481a4.975 4.975 0 0 0 2.609.725c.886 0 1.87-.387 2.756-1.74L56 9.047h5.414l6.004 11.46L72.734 9Z" fill="#fff"/><path d="M81 9h9.279C95.704 9 99 12.1 99 16.678c0 5.118-4.107 7.727-9.177 7.727H86.02V31H81V9Zm8.975 11.123c2.484 0 3.955-1.427 3.955-3.396 0-2.165-1.572-3.347-4.057-3.347H86.02v6.743h3.955Z" fill="#fff"/><path d="M109.671 9h4.607L124 31h-5.215l-2.076-4.878h-9.57L105.063 31H100l9.671-22Zm5.266 12.878-3.038-7.073-3.038 7.073h6.076Z" fill="#fff"/><path d="M128 9h10.373c2.543 0 4.588.688 5.834 1.964.998.982 1.546 2.21 1.546 3.781 0 2.505-1.346 3.88-2.942 4.764 2.593.982 4.189 2.455 4.189 5.45 0 4.028-3.341 6.041-8.378 6.041H128V9Zm9.325 8.888c2.195 0 3.541-.687 3.541-2.406 0-1.424-1.147-2.259-3.241-2.259h-4.838v4.665h4.538Zm1.347 8.84c2.194 0 3.491-.737 3.491-2.456 0-1.473-1.097-2.406-3.641-2.406h-5.735v4.862h5.885Z" fill="#fff"/><path d="M152 9h16.85v4.312h-11.964v4.459h10.519v4.311h-10.519v4.606H169V31h-17V9Z" fill="#fff"/><path d="M193.951 31h-4.775V16.562L179.529 31H175V9h4.775v14.438L189.471 9H194v22h-.049Z" fill="#fff"/><path d="M45.745 9 40 18.33 34.205 9H29v22h4.714V16.759l6.139 9.281.049.098.049-.098H40l6.188-9.38V31H51V9h-5.255Z" fill="#fff"/></g><defs><clipPath id="logo_a"><path fill="#fff" d="M0 0h194v52H0z"/></clipPath></defs></svg>